<svg width="128" height="128" viewBox="0 0 128 128" fill="none" xmlns="http://www.w3.org/2000/svg">
<path fill-rule="evenodd" clip-rule="evenodd" d="M9.02242 41.8522C9.01366 42.8174 9.00832 43.8168 9.00507 44.8522C9 46.4667 9 48.1688 9 49.9655V60.3975H15V49.9655C15 48.1668 15 46.4744 15.005 44.871L15.0239 38.871L9.06426 38.8523C9.04524 39.8142 9.03184 40.8134 9.02242 41.8522ZM9.69002 28.7969L14.6972 30.5473L16.6772 24.8835C17.091 23.6999 17.5918 22.7461 18.2006 21.9082C18.3636 21.6838 18.5321 21.4637 18.7057 21.248L19.8397 19.8397L21.248 18.7057C21.4637 18.5321 21.6838 18.3636 21.9082 18.2006C22.7461 17.5918 23.6999 17.091 24.8835 16.6772L30.5473 14.6972L28.7969 9.69002C27.7354 9.83122 26.7389 10.0013 25.7993 10.2062C24.7693 10.4308 23.8075 10.6973 22.9034 11.0134C21.2364 11.5961 19.7652 12.3476 18.4226 13.3167C18.4089 13.3266 18.3952 13.3365 18.3814 13.3465C18.0767 13.5679 17.7778 13.7966 17.485 14.0324C16.9956 14.4265 16.5231 14.8403 16.0687 15.2729C15.7969 15.5315 15.5315 15.7969 15.2729 16.0687C14.8403 16.5231 14.4265 16.9956 14.0324 17.485C13.7966 17.7778 13.5679 18.0767 13.3465 18.3814C13.3365 18.3952 13.3266 18.4089 13.3167 18.4226C12.3476 19.7652 11.5961 21.2364 11.0134 22.9034C10.6973 23.8075 10.4308 24.7693 10.2062 25.7993C10.0013 26.7389 9.83122 27.7354 9.69002 28.7969ZM38.8523 9.06426L38.871 15.0239L44.871 15.005C46.4744 15 48.1668 15 49.9655 15H60.3975V9H49.9655C48.1688 9 46.4667 9 44.8522 9.00507C43.8168 9.00832 42.8174 9.01366 41.8522 9.02242C40.8134 9.03184 39.8142 9.04524 38.8523 9.06426ZM67.6025 9V15H78.0345C79.8332 15 81.5256 15 83.129 15.005L89.129 15.0239L89.1477 9.06426C88.1858 9.04524 87.1866 9.03185 86.1478 9.02242C85.1826 9.01366 84.1832 9.00832 83.1478 9.00507C81.5333 9 79.8312 9 78.0345 9H67.6025ZM99.2031 9.69003L97.4527 14.6972L103.117 16.6772C104.3 17.091 105.254 17.5918 106.092 18.2006C106.316 18.3636 106.536 18.5321 106.752 18.7057L108.16 19.8397L109.294 21.248C109.468 21.4637 109.636 21.6838 109.799 21.9081C110.408 22.7461 110.909 23.6999 111.323 24.8835L113.303 30.5473L118.31 28.7969C118.169 27.7354 117.999 26.7389 117.794 25.7993C117.569 24.7693 117.303 23.8075 116.987 22.9034C116.404 21.2364 115.652 19.7652 114.683 18.4226C114.673 18.4089 114.663 18.3952 114.653 18.3814C114.432 18.0767 114.203 17.7778 113.968 17.485C113.574 16.9956 113.16 16.5231 112.727 16.0687C112.468 15.7969 112.203 15.5315 111.931 15.2729C111.477 14.8403 111.004 14.4265 110.515 14.0325C110.222 13.7966 109.923 13.5679 109.619 13.3465C109.605 13.3365 109.591 13.3266 109.577 13.3167C108.235 12.3476 106.764 11.5962 105.097 11.0134C104.192 10.6973 103.231 10.4308 102.201 10.2062C101.261 10.0013 100.265 9.83123 99.2031 9.69003ZM118.936 38.8523L112.976 38.871L112.995 44.871C113 46.4744 113 48.1668 113 49.9655V60.3975H119V49.9655C119 48.1688 119 46.4667 118.995 44.8522C118.992 43.8168 118.986 42.8174 118.978 41.8522C118.968 40.8134 118.955 39.8142 118.936 38.8523ZM119 67.6025H113V78.0345C113 79.8332 113 81.5256 112.995 83.129L112.976 89.129L118.936 89.1477C118.955 88.1858 118.968 87.1866 118.978 86.1478C118.986 85.1826 118.992 84.1832 118.995 83.1478C119 81.5333 119 79.8312 119 78.0345V67.6025ZM118.31 99.2031L113.303 97.4527L111.323 103.117C110.909 104.3 110.408 105.254 109.799 106.092C109.636 106.316 109.468 106.536 109.294 106.752L108.16 108.16L106.752 109.294C106.536 109.468 106.316 109.636 106.092 109.799C105.254 110.408 104.3 110.909 103.117 111.323L97.4527 113.303L99.2031 118.31C100.265 118.169 101.261 117.999 102.201 117.794C103.231 117.569 104.192 117.303 105.097 116.987C106.764 116.404 108.235 115.652 109.577 114.683C109.591 114.673 109.605 114.663 109.619 114.653C109.923 114.432 110.222 114.203 110.515 113.968C111.004 113.574 111.477 113.16 111.931 112.727C112.203 112.468 112.468 112.203 112.727 111.931C113.16 111.477 113.574 111.004 113.968 110.515C114.203 110.222 114.432 109.923 114.653 109.619C114.663 109.605 114.673 109.591 114.683 109.577C115.652 108.235 116.404 106.764 116.987 105.097C117.303 104.192 117.569 103.231 117.794 102.201C117.999 101.261 118.169 100.265 118.31 99.2031ZM89.1477 118.936L89.129 112.976L83.129 112.995C81.5256 113 79.8333 113 78.0345 113H67.6025V119H78.0345C79.8312 119 81.5333 119 83.1478 118.995C84.1832 118.992 85.1826 118.986 86.1478 118.978C87.1866 118.968 88.1858 118.955 89.1477 118.936ZM60.3975 119V113H49.9655C48.1668 113 46.4744 113 44.871 112.995L38.871 112.976L38.8523 118.936C39.8142 118.955 40.8134 118.968 41.8522 118.978C42.8174 118.986 43.8168 118.992 44.8522 118.995C46.4667 119 48.1688 119 49.9655 119H60.3975ZM28.7969 118.31L30.5473 113.303L24.8835 111.323C23.6999 110.909 22.7461 110.408 21.9082 109.799C21.6838 109.636 21.4637 109.468 21.248 109.294L19.8397 108.16L18.7057 106.752C18.5321 106.536 18.3636 106.316 18.2006 106.092C17.5918 105.254 17.091 104.3 16.6772 103.117L14.6972 97.4527L9.69003 99.2031C9.83123 100.265 10.0013 101.261 10.2062 102.201C10.4308 103.231 10.6973 104.192 11.0134 105.097C11.5962 106.764 12.3476 108.235 13.3167 109.577C13.3266 109.591 13.3365 109.605 13.3465 109.619C13.5679 109.923 13.7966 110.222 14.0325 110.515C14.4265 111.004 14.8403 111.477 15.2729 111.931C15.5315 112.203 15.7969 112.468 16.0687 112.727C16.5231 113.16 16.9956 113.574 17.485 113.968C17.7778 114.203 18.0767 114.432 18.3814 114.653C18.3952 114.663 18.4089 114.673 18.4226 114.683C19.7652 115.652 21.2364 116.404 22.9034 116.987C23.8075 117.303 24.7693 117.569 25.7993 117.794C26.7389 117.999 27.7354 118.169 28.7969 118.31ZM9.06426 89.1477L15.0239 89.129L15.005 83.129C15 81.5256 15 79.8333 15 78.0345V67.6025H9V78.0345C9 79.8312 9 81.5333 9.00507 83.1478C9.00832 84.1832 9.01366 85.1826 9.02242 86.1478C9.03185 87.1866 9.04524 88.1858 9.06426 89.1477Z" fill="#1C1B1F"/>
<mask id="mask0_15943_45325" style="mask-type:alpha" maskUnits="userSpaceOnUse" x="25" y="25" width="78" height="78">
<rect x="25" y="25" width="78" height="78" fill="#D9D9D9"/>
</mask>
<g mask="url(#mask0_15943_45325)">
<path d="M55.0624 96.5L53.7624 86.1C53.0582 85.8292 52.3947 85.5042 51.7718 85.125C51.1489 84.7458 50.5395 84.3396 49.9437 83.9062L40.2749 87.9688L31.3374 72.5312L39.7062 66.1938C39.652 65.8146 39.6249 65.449 39.6249 65.0969V62.9031C39.6249 62.551 39.652 62.1854 39.7062 61.8062L31.3374 55.4688L40.2749 40.0312L49.9437 44.0938C50.5395 43.6604 51.1624 43.2542 51.8124 42.875C52.4624 42.4958 53.1124 42.1708 53.7624 41.9L55.0624 31.5H72.9374L74.2374 41.9C74.9416 42.1708 75.6051 42.4958 76.228 42.875C76.8509 43.2542 77.4603 43.6604 78.0562 44.0938L87.7249 40.0312L96.6624 55.4688L88.2937 61.8062C88.3478 62.1854 88.3749 62.551 88.3749 62.9031V65.0969C88.3749 65.449 88.3207 65.8146 88.2124 66.1938L96.5812 72.5312L87.6437 87.9688L78.0562 83.9062C77.4603 84.3396 76.8374 84.7458 76.1874 85.125C75.5374 85.5042 74.8874 85.8292 74.2374 86.1L72.9374 96.5H55.0624ZM64.1624 75.375C67.3041 75.375 69.9853 74.2646 72.2062 72.0438C74.427 69.8229 75.5374 67.1417 75.5374 64C75.5374 60.8583 74.427 58.1771 72.2062 55.9563C69.9853 53.7354 67.3041 52.625 64.1624 52.625C60.9666 52.625 58.2718 53.7354 56.078 55.9563C53.8843 58.1771 52.7874 60.8583 52.7874 64C52.7874 67.1417 53.8843 69.8229 56.078 72.0438C58.2718 74.2646 60.9666 75.375 64.1624 75.375Z" fill="#1C1B1F"/>
</g>
</svg>
